<?xml version="1.0" standalone="no"?>
<!DOCTYPE svg PUBLIC "-//W3C//DTD SVG 20010904//EN"
 "http://www.w3.org/TR/2001/REC-SVG-20010904/DTD/svg10.dtd">
<svg version="1.0" xmlns="http://www.w3.org/2000/svg"
 width="1426.000000pt" height="980.000000pt" viewBox="0 0 1426.000000 980.000000"
 preserveAspectRatio="xMidYMid meet">

<g transform="translate(0.000000,980.000000) scale(0.100000,-0.100000)"
fill="#000000" stroke="none">
<path d="M6890 8364 c-502 -44 -924 -162 -1340 -375 -1068 -545 -1785 -1617
-1881 -2813 -14 -184 -7 -532 16 -706 76 -590 301 -1152 651 -1626 522 -707
1286 -1189 2146 -1353 276 -53 637 -74 908 -52 855 68 1633 433 2225 1042 534
551 862 1230 960 1989 23 176 31 524 15 706 -35 430 -144 834 -326 1212 -223
466 -527 856 -928 1189 -491 409 -1103 676 -1751 764 -144 19 -574 34 -695 23z
m668 -168 c609 -86 1142 -312 1632 -692 137 -106 416 -381 521 -514 374 -471
605 -985 698 -1550 57 -345 55 -764 -4 -1105 -207 -1190 -1051 -2181 -2194
-2576 -604 -208 -1276 -236 -1895 -79 -582 149 -1077 428 -1515 854 -478 467
-812 1089 -936 1744 -49 256 -69 654 -46 912 129 1459 1210 2670 2645 2965
109 22 284 47 406 59 105 9 579 -3 688 -18z"/>
<path d="M6865 8000 c-222 -21 -478 -73 -690 -141 -717 -229 -1342 -730 -1727
-1384 -448 -762 -550 -1690 -277 -2532 155 -477 394 -868 754 -1229 219 -220
397 -360 644 -503 1242 -721 2810 -498 3806 540 302 315 521 665 673 1074 286
770 249 1643 -101 2397 -250 538 -690 1025 -1207 1338 -375 227 -758 360
-1220 426 -128 18 -518 26 -655 14z m821 -1446 c46 -34 67 -70 72 -123 l5 -51
394 0 c320 0 399 -3 421 -14 136 -71 120 -265 -25 -305 -21 -6 -84 -11 -140
-11 l-103 0 -2 -1273 -3 -1273 -34 -68 c-42 -82 -121 -156 -201 -189 l-55 -22
-890 0 -890 0 -68 34 c-80 40 -148 110 -186 191 l-26 55 -3 1271 -2 1272 -123
3 c-138 4 -173 18 -215 80 -20 29 -23 44 -20 96 3 53 9 68 33 94 58 60 48 59
480 59 l395 0 0 40 c0 64 41 125 100 149 16 6 212 9 542 8 505 -2 517 -2 544
-23z"/>
<path d="M6130 4802 l0 -1248 23 -44 c13 -26 40 -57 65 -75 l44 -30 868 0 868
0 44 30 c25 18 52 49 66 75 l22 44 0 1248 0 1248 -1000 0 -1000 0 0 -1248z
m537 1095 l23 -22 0 -1109 c0 -979 -1 -1112 -15 -1132 -27 -42 -95 -44 -135
-4 -20 20 -20 38 -20 1133 l0 1114 23 20 c42 39 85 39 124 0z m492 22 c64 -23
61 42 61 -1164 l0 -1097 -29 -29 c-20 -20 -39 -29 -61 -29 -22 0 -41 9 -61 29
l-29 29 0 1096 c0 700 4 1104 10 1121 8 21 30 37 76 55 1 0 15 -5 33 -11z
m559 -22 l22 -20 0 -1114 0 -1114 -26 -24 c-40 -37 -101 -31 -129 11 -14 21
-15 143 -15 1131 l0 1107 21 22 c35 37 86 37 127 1z"/>
</g>
</svg>
